{"accessors" : [{"bufferView" : 0, "byteOffset" : 0, "componentType" : 5123, "count" : 20295, "type" : "SCALAR", "max" : [20294], "min" : [0]}, {"bufferView" : 1, "byteOffset" : 0, "componentType" : 5126, "count" : 20295, "type" : "VEC3", "max" : [56.92610168457031, 217.5019989013672, 24.510499954223633], "min" : [-156.49400329589844, -13.857999801635742, -59.39070129394531], "name" : "POSITION"}, {"bufferView" : 1, "byteOffset" : 12, "componentType" : 5126, "count" : 20295, "type" : "VEC3", "max" : [1.0000044107437134, 0.9982427954673767, 0.9999915361404419], "min" : [-1.0000044107437134, -1.0000044107437134, -0.9999789595603943], "name" : "NORMAL"}, {"bufferView" : 1, "byteOffset" : 24, "componentType" : 5126, "count" : 20295, "type" : "VEC2", "max" : [0.9944999814033508, -0], "min" : [0, -0.9904000163078308], "name" : "TEXCOORD_0"}], "asset" : {"generator" : "Aspose.3D 23.9.0", "version" : "2.0"}, "buffers" : [{"uri" : "data:application/octet-stream;base64,", "byteLength" : 690040}], "bufferViews" : [{"buffer" : 0, "byteOffset" : 0, "byteLength" : 40592, "target" : 34963}, {"buffer" : 0, "byteOffset" : 40596, "byteLength" : 649440, "byteStride" : 32, "target" : 34962}], "meshes" : [{"primitives" : [{"attributes" : {"POSITION" : 1, "NORMAL" : 2, "TEXCOORD_0" : 3}, "indices" : 0, "mode" : 4}], "name" : ""}], "nodes" : [{"matrix" : [0.393701, 0, 0, 0, 0, 0.393701, 0, 0, 0, 0, 0.393701, 0, 0, 0, 0, 1], "mesh" : 0, "name" : "Model"}, {"children" : [0], "matrix" : [-0.393701, 0, 0, 0, 0, 0.393701, 0, 0, 0, 0, -0.393701, 0, 0, 0, 0, 1], "name" : "C_BUFFBONE_GLB_LAYOUT_LOC"}, {"children" : [1], "matrix" : [-0.393701, 0, 0, 0, 0, 0, 0.393701, 0, 0, 0.393701, 0, 0, 0, 0, 0, 1], "name" : "BUFFBONE_GLB_CHANNEL_LOC"}, {"children" : [2], "matrix" : [-0.393701, 0, 0, 0, 0, 0.393701, 0, 0, 0, 0, -0.393701, 0, 0, 0, 0, 1], "name" : "BUFFBONE_GLB_GROUND_LOC"}, {"children" : [3], "matrix" : [-0.393701, 0, 0, 0, 0, 0.393701, 0, 0, 0, 0, -0.393701, 0, 0.041892, 95.857872, -2.874173, 1], "name" : "C_BUFFBONE_GLB_OVERHEAD_LOC"}, {"children" : [4], "matrix" : [-0.393701, 0, 0, 0, 0, 0.393701, 0, 0, 0, 0, -0.393701, 0, 0, 43.307087, 0, 1], "name" : "C_BUFFBONE_GLB_CENTER_LOC"}], "scene" : 0, "scenes" : [{"nodes" : [5]}]}